<?xml version="1.0" encoding="utf-8"?>
<!-- Generator: Adobe Illustrator 26.0.2, SVG Export Plug-In . SVG Version: 6.00 Build 0)  -->
<svg version="1.1" id="图层_1" xmlns="http://www.w3.org/2000/svg" xmlns:xlink="http://www.w3.org/1999/xlink" x="0px" y="0px"
	 viewBox="0 0 2133 2133" style="enable-background:new 0 0 2133 2133;" xml:space="preserve">
<path d="M1432.36,1041.42v-9.96c265.45-59.73,398.2-185.8,398.2-378.3c-6.64-265.44-228.96-401.5-666.98-408.16h-151.91
	c0.01,0.04,0.02,0.09,0.03,0.14c-3.27-0.03-6.55-0.14-9.82-0.14H267.29v68.3h262.77v1592.73H267.29v62.04h782.79
	c-0.06-0.27-0.09-0.56-0.15-0.83h153.47c451.28-13.27,686.89-172.54,706.8-477.84C1896.9,1250.47,1737.63,1101.16,1432.36,1041.42z
	 M668.74,1906.04h-83.42V313.31h83.42V1906.04z M961.22,1906.04h-87.59V313.31h87.59V1906.04z M1143.67,324.65
	c179.18,6.65,268.78,116.16,268.78,328.52c19.4,258.69-106.22,381.82-376.68,369.53V355.94
	C1057.16,335.23,1092.93,324.65,1143.67,324.65z M1163.58,1887.6c-61.72,3.87-104.23-12.59-127.81-49.1v-747.3h48.17
	c258.83,6.64,388.25,142.71,388.25,408.16C1472.18,1764.84,1369.28,1894.26,1163.58,1887.6z"/>
</svg>
