<?xml version="1.0" encoding="utf-8"?>
<!-- Generator: Adobe Illustrator 26.0.2, SVG Export Plug-In . SVG Version: 6.00 Build 0)  -->
<svg version="1.1" id="图层_1" xmlns="http://www.w3.org/2000/svg" xmlns:xlink="http://www.w3.org/1999/xlink" x="0px" y="0px"
	 viewBox="0 0 992.98 992.98" style="enable-background:new 0 0 992.98 992.98;" xml:space="preserve">
<style type="text/css">
	.st0{fill:#231815;}
</style>
<g>
	<path class="st0" d="M496.49,992.98C222.72,992.98,0,770.25,0,496.49S222.72,0,496.49,0s496.49,222.73,496.49,496.49
		S770.25,992.98,496.49,992.98z M496.49,20.67c-262.37,0-475.82,213.45-475.82,475.82s213.45,475.82,475.82,475.82
		S972.3,758.86,972.3,496.49S758.85,20.67,496.49,20.67z"/>
</g>
<g>
	<path class="st0" d="M496.49,950.27C246.27,950.27,42.7,746.7,42.7,496.49S246.27,42.71,496.49,42.71s453.78,203.57,453.78,453.78
		S746.7,950.27,496.49,950.27z M496.49,63.38c-238.82,0-433.11,194.29-433.11,433.11c0,238.81,194.29,433.11,433.11,433.11
		c238.81,0,433.11-194.29,433.11-433.11C929.59,257.67,735.3,63.38,496.49,63.38z"/>
</g>
<path class="st0" d="M644.47,478.73v-3.46c92.26-20.76,138.4-64.58,138.4-131.48c-2.31-92.26-79.58-139.55-231.82-141.86h-52.8
	c0,0.02,0.01,0.03,0.01,0.05c-1.14-0.01-2.28-0.05-3.41-0.05H239.53v23.74h91.33v553.58h-91.33v21.56H511.6
	c-0.02-0.1-0.03-0.19-0.05-0.29h53.34c156.85-4.61,238.74-59.97,245.66-166.08C805.93,551.39,750.57,499.49,644.47,478.73z
	 M379.06,779.24h-28.99V225.66h28.99V779.24z M480.72,779.24h-30.44V225.66h30.44V779.24z M544.13,229.6
	c62.28,2.31,93.42,40.37,93.42,114.18c6.74,89.91-36.92,132.71-130.92,128.43V240.48C514.07,233.28,526.5,229.6,544.13,229.6z
	 M551.05,772.83c-21.45,1.34-36.23-4.37-44.42-17.06V496.03h16.74c89.96,2.31,134.94,49.6,134.94,141.86
	C658.31,730.16,622.55,775.15,551.05,772.83z"/>
</svg>
